<svg width="16" height="16" viewBox="0 0 16 16" fill="none" xmlns="http://www.w3.org/2000/svg">
<rect width="16" height="16" rx="2" fill="#040914"/>
<path d="M5.4696 11.1296C5.0328 11.1296 4.6608 11.0576 4.3536 10.9136C4.0464 10.7696 3.8112 10.5704 3.648 10.316C3.4848 10.0616 3.4032 9.7736 3.4032 9.452H4.1088C4.1088 9.6104 4.1496 9.7688 4.2312 9.9272C4.3176 10.0856 4.4592 10.2176 4.656 10.3232C4.8576 10.4288 5.1288 10.4816 5.4696 10.4816C5.7864 10.4816 6.0456 10.436 6.2472 10.3448C6.4488 10.2488 6.5976 10.1264 6.6936 9.9776C6.7896 9.824 6.8376 9.6584 6.8376 9.4808C6.8376 9.2648 6.744 9.0872 6.5568 8.948C6.3696 8.804 6.096 8.7152 5.736 8.6816L5.1528 8.6312C4.6872 8.5928 4.3152 8.4488 4.0368 8.1992C3.7584 7.9496 3.6192 7.6208 3.6192 7.2128C3.6192 6.8912 3.696 6.6104 3.8496 6.3704C4.008 6.1304 4.2264 5.9432 4.5048 5.8088C4.7832 5.6696 5.1072 5.6 5.4768 5.6C5.8416 5.6 6.1632 5.6672 6.4416 5.8016C6.72 5.936 6.936 6.1256 7.0896 6.3704C7.248 6.6104 7.3272 6.8984 7.3272 7.2344H6.6216C6.6216 7.0664 6.5808 6.908 6.4992 6.7592C6.4224 6.6104 6.3 6.488 6.132 6.392C5.964 6.296 5.7456 6.248 5.4768 6.248C5.2176 6.248 5.0016 6.2936 4.8288 6.3848C4.6608 6.476 4.5336 6.596 4.4472 6.7448C4.3656 6.8888 4.3248 7.0448 4.3248 7.2128C4.3248 7.4048 4.3992 7.5752 4.548 7.724C4.6968 7.8728 4.9176 7.9592 5.2104 7.9832L5.7936 8.0336C6.1536 8.0624 6.4632 8.1392 6.7224 8.264C6.9864 8.384 7.188 8.5472 7.3272 8.7536C7.4712 8.9552 7.5432 9.1976 7.5432 9.4808C7.5432 9.8024 7.4568 10.088 7.284 10.3376C7.1112 10.5872 6.8688 10.7816 6.5568 10.9208C6.2448 11.06 5.8824 11.1296 5.4696 11.1296ZM8.72726 11V5.7152H9.43286V11H8.72726ZM11.9745 11L10.2321 8.66H11.0601L12.8313 11H11.9745ZM9.16646 9.0992V8.4728H10.5777C10.7985 8.4728 10.9881 8.4272 11.1465 8.336C11.3049 8.2448 11.4273 8.12 11.5137 7.9616C11.6001 7.7984 11.6433 7.6136 11.6433 7.4072C11.6433 7.2008 11.6001 7.0184 11.5137 6.86C11.4273 6.6968 11.3049 6.5696 11.1465 6.4784C10.9881 6.3824 10.7985 6.3344 10.5777 6.3344H9.16646V5.7152H10.4481C10.8321 5.7152 11.1681 5.7728 11.4561 5.888C11.7441 6.0032 11.9673 6.1808 12.1257 6.4208C12.2841 6.6608 12.3633 6.9704 12.3633 7.3496V7.4648C12.3633 7.844 12.2817 8.1536 12.1185 8.3936C11.9601 8.6336 11.7369 8.8112 11.4489 8.9264C11.1657 9.0416 10.8321 9.0992 10.4481 9.0992H9.16646Z" fill="#22C55E"/>
</svg>
