<svg width="512" height="512" viewBox="0 0 512 512" fill="none" xmlns="http://www.w3.org/2000/svg">
<g clip-path="url(#clip0_4_17)">
<rect width="512" height="512" rx="12" fill="#1F1F1F"/>
<path d="M175.664 344.584C164.144 344.584 153.52 342.579 143.792 338.568C134.149 334.557 126.299 328.456 120.24 320.264C114.267 312.072 111.067 301.661 110.64 289.032H140.336C140.336 295.432 141.915 300.68 145.072 304.776C148.229 308.872 152.453 311.944 157.744 313.992C163.12 315.955 169.008 316.936 175.408 316.936C181.552 316.936 187.013 316.125 191.792 314.504C196.656 312.883 200.453 310.579 203.184 307.592C206 304.52 207.408 300.893 207.408 296.712C207.408 291.165 205.701 286.813 202.288 283.656C198.96 280.499 193.584 277.597 186.16 274.952L153.392 261.896C140.592 256.861 130.779 251.016 123.952 244.36C117.125 237.704 113.712 228.531 113.712 216.84C113.712 203.357 119.045 192.435 129.712 184.072C140.379 175.709 155.269 171.528 174.384 171.528C192.987 171.528 207.365 175.88 217.52 184.584C227.675 193.203 233.435 205.235 234.8 220.68H205.104C203.995 214.109 201.008 208.861 196.144 204.936C191.28 200.925 184.027 198.92 174.384 198.92C165.851 198.92 159.109 200.712 154.16 204.296C149.211 207.795 146.736 212.232 146.736 217.608C146.736 222.216 148.272 225.885 151.344 228.616C154.501 231.261 159.365 233.821 165.936 236.296L202.288 250.376C214.576 255.155 224.005 261.171 230.576 268.424C237.147 275.677 240.432 284.765 240.432 295.688C240.432 305.672 237.915 314.333 232.88 321.672C227.845 328.925 220.507 334.557 210.864 338.568C201.221 342.579 189.488 344.584 175.664 344.584ZM328.93 344.584C315.362 344.584 303.117 341 292.194 333.832C281.271 326.664 272.567 316.68 266.082 303.88C259.682 290.995 256.482 275.976 256.482 258.824C256.482 245.256 258.445 233.096 262.37 222.344C266.381 211.592 271.927 202.419 279.01 194.824C286.093 187.229 294.413 181.469 303.97 177.544C313.527 173.533 323.895 171.528 335.074 171.528C350.605 171.528 363.618 174.899 374.114 181.64C384.695 188.381 392.93 199.005 398.818 213.512L367.842 220.68C363.49 213.597 358.455 208.221 352.738 204.552C347.106 200.797 340.706 198.92 333.538 198.92C325.346 198.92 317.879 201.352 311.138 206.216C304.397 210.995 299.021 217.864 295.01 226.824C290.999 235.784 288.994 246.451 288.994 258.824C288.994 270.429 290.743 280.584 294.242 289.288C297.826 297.992 302.818 304.776 309.218 309.64C315.618 314.504 323.042 316.936 331.49 316.936C338.658 316.936 345.058 315.357 350.69 312.2C356.407 308.957 360.887 304.349 364.13 298.376C367.458 292.403 369.122 285.192 369.122 276.744H375.778C375.778 290.568 374.114 302.557 370.786 312.712C367.543 322.867 362.466 330.717 355.554 336.264C348.642 341.811 339.767 344.584 328.93 344.584ZM373.474 341L369.122 304.392V275.72L331.746 274.952V255.752H398.05V341H373.474Z" fill="white"/>
</g>
<defs>
<clipPath id="clip0_4_17">
<rect width="512" height="512" rx="12" fill="white"/>
</clipPath>
</defs>
</svg>
